<svg viewBox="0 0 48 48" xmlns="http://www.w3.org/2000/svg" fill="#000000"><g id="SVGRepo_bgCarrier" stroke-width="0"></g><g id="SVGRepo_tracerCarrier" stroke-linecap="round" stroke-linejoin="round"></g><g id="SVGRepo_iconCarrier"><defs><style>.a{fill:none;stroke:#000000;stroke-linecap:round;stroke-linejoin:round;}</style></defs><circle class="a" cx="24" cy="24" r="21.5"></circle><path class="a" d="M32.2807,29.7009c1.112-.451,3.0916-1.0492,3.6872-.3272.6446.7814-.17,2.4769-.92,3.7942"></path><path class="a" d="M11.7984,30.2234c1.7586,1.3965,6.9532,3.5343,12.4876,3.5343a17.0029,17.0029,0,0,0,10.1671-3.0789"></path><rect class="a" x="32.9047" y="20.175" width="4" height="5.3" rx="2"></rect><path class="a" d="M11.1635,22.175a2,2,0,0,1,2-2h0a2,2,0,0,1,2,2v3.3"></path><line class="a" x1="11.1635" y1="20.175" x2="11.1635" y2="25.475"></line><path class="a" d="M15.1636,22.175a2,2,0,0,1,2-2h0a2,2,0,0,1,2,2v3.3"></path><polyline class="a" points="27.286 20.175 31.286 20.175 27.286 25.475 31.286 25.475"></polyline><path class="a" d="M9.014,23.475a2,2,0,0,1-2,2h0a2,2,0,0,1-2-2v-1.3a2,2,0,0,1,2-2h0a2,2,0,0,1,2,2"></path><line class="a" x1="9.014" y1="25.475" x2="9.014" y2="20.175"></line><path class="a" d="M25.1636,23.475a2,2,0,0,1-2,2h0a2,2,0,0,1-2-2v-1.3a2,2,0,0,1,2-2h0a2,2,0,0,1,2,2"></path><line class="a" x1="25.1636" y1="25.475" x2="25.1636" y2="20.175"></line><path class="a" d="M42.986,25.475v-3.3a2,2,0,0,0-2-2h0a2,2,0,0,0-2,2v3.3"></path><line class="a" x1="38.986" y1="22.175" x2="38.986" y2="20.175"></line></g></svg>