<svg height="200px" width="200px" version="1.1" id="Layer_1" xmlns="http://www.w3.org/2000/svg" xmlns:xlink="http://www.w3.org/1999/xlink" viewBox="0 0 392.537 392.537" xml:space="preserve" fill="#000000"><g id="SVGRepo_bgCarrier" stroke-width="0"></g><g id="SVGRepo_tracerCarrier" stroke-linecap="round" stroke-linejoin="round"></g><g id="SVGRepo_iconCarrier"> <path style="fill:#56ACE0;" d="M304.602,141.114c55.273-59.41,73.503-94.578,57.406-110.675 c-16.097-15.968-51.135,2.263-110.545,57.406c-2.909,2.78-7.24,3.685-11.055,2.327L76.723,32.766L59.85,49.574l123.992,86.885 c5.43,3.814,6.271,11.507,1.745,16.356l0,0c-5.301,5.689-10.408,11.378-15.386,17.067l28.768,28.768 c4.719,4.719,4.267,12.606-1.422,16.614c-4.396,3.168-10.602,2.263-14.481-1.616l-27.152-27.152 c-4.267,5.172-8.275,10.279-12.154,15.321l11.572,11.572c4.719,4.719,4.267,12.606-1.422,16.614 c-4.396,3.168-10.602,2.263-14.481-1.616l-8.792-8.792c-12.671,18.23-22.174,34.844-27.41,48.55l0,0 c-1.875,4.461-6.465,7.24-11.378,6.853L50.8,271.57l41.309,28.186l28.121,41.244l-3.426-41.309 c-0.388-4.784,2.392-9.244,6.982-10.99c29.414-11.442,72.663-42.085,115.459-82.166l0,0c4.848-4.461,12.606-3.685,16.356,1.681 l86.756,123.992l16.873-16.873l-57.406-163.749C300.787,148.031,301.822,143.958,304.602,141.114z"></path> <path style="fill:#194F82;" d="M389.353,254.504c-4.267-4.267-11.119-4.267-15.451,0l-9.374,9.374l-9.632-27.539l14.158-14.158 c4.267-4.267,4.267-11.119,0-15.451c-4.267-4.331-11.119-4.267-15.451,0l-6.723,6.788l-21.98-62.448 c47.515-51.588,85.204-103.305,52.558-136.016s-84.428,5.042-136.081,52.364l-62.448-21.851l6.723-6.723 c4.267-4.267,4.267-11.119,0-15.451c-4.267-4.267-11.119-4.267-15.451,0L156.044,37.55l-27.539-9.632l9.244-9.244 c4.267-4.267,4.267-11.119,0-15.451c-4.267-4.267-11.119-4.267-15.451,0l-16.549,16.743l-28.38-9.956 c-3.943-1.422-8.339-0.388-11.313,2.521L35.284,43.433c-4.784,4.784-4.073,12.735,1.487,16.614l124.509,87.143 c-34.974,38.788-61.673,76.347-74.861,105.632l-74.537-6.077c-11.184-1.034-16.356,13.511-7.111,19.782l72.081,49.131l49.131,72.081 c6.335,9.244,20.816,4.073,19.846-7.046l-6.206-74.667c29.35-13.188,66.974-39.758,105.697-74.861l87.143,124.509 c3.879,5.56,11.83,6.271,16.614,1.487l30.901-30.901c2.909-2.909,3.943-7.37,2.521-11.313l-9.956-28.251l16.679-16.679 C393.62,265.752,393.62,258.835,389.353,254.504z M342.872,332.597l-86.82-124.057c-3.814-5.43-11.507-6.271-16.356-1.681l0,0 c-42.796,40.016-85.98,70.723-115.459,82.166c-4.461,1.681-7.37,6.206-6.982,10.99l3.426,41.309l-28.121-41.244l-41.309-28.186 l41.051,3.426c4.848,0.388,9.438-2.392,11.378-6.853l0,0c5.301-13.705,14.804-30.384,27.41-48.549l8.792,8.792 c3.879,3.879,10.02,4.784,14.481,1.616c5.624-4.008,6.077-11.895,1.422-16.614l-11.701-11.636 c3.879-5.042,7.887-10.15,12.154-15.321l27.152,27.152c3.879,3.879,10.02,4.784,14.481,1.616c5.624-4.008,6.077-11.895,1.422-16.614 l-28.768-28.768c4.913-5.624,10.15-11.378,15.386-17.067l0,0c4.461-4.848,3.685-12.606-1.745-16.356L59.85,49.574l16.873-16.873 l163.556,57.471c3.879,1.293,8.145,0.388,11.055-2.327c59.41-55.143,94.578-73.438,110.545-57.406 c15.968,15.968-2.263,51.135-57.406,110.675c-2.78,2.78-3.685,6.982-2.392,10.667l57.6,163.943L342.872,332.597z"></path> </g></svg>